<svg xmlns="http://www.w3.org/2000/svg" viewBox="-3 -3 183 183" width="180" height="180" role="img" aria-label="KB Consulting mark">
  <g fill="#1C2B47" stroke="#1C2B47" stroke-width="2.2" stroke-linejoin="round" stroke-linecap="round">
    <!-- K letterform -->
    <path d="M83.609,90.119 C82.664,90.119 81.862,90.141 81.213,90.196 C80.565,90.245 79.976,90.355 79.454,90.531 C78.927,90.707 78.421,90.965 77.921,91.317 C77.421,91.663 76.871,92.114 76.272,92.663 L27.472,139.517 C26.928,139.968 26.478,140.276 26.131,140.452 C25.78,140.628 25.329,140.716 24.779,140.716 L23.878,140.716 L74.777,91.916 C75.574,91.168 76.289,90.608 76.91,90.229 C77.536,89.86 78.322,89.569 79.267,89.371 C78.372,89.223 77.586,88.943 76.91,88.552 C76.239,88.151 75.574,87.623 74.931,86.975 L20.888,35.933 L21.636,35.933 C22.389,35.933 22.922,36.01 23.246,36.158 C23.57,36.307 23.933,36.581 24.329,36.977 L75.821,85.628 C76.574,86.332 77.223,86.876 77.773,87.272 C78.322,87.673 78.872,87.975 79.416,88.173 C79.965,88.371 80.565,88.497 81.213,88.552 C81.862,88.596 82.664,88.624 83.609,88.624 L88.611,88.624 L88.611,90.119 L83.609,90.119 Z"/>
    <!-- B letterform -->
    <path d="M150.057,73.944 C148.71,76.989 146.776,79.621 144.259,81.842 C141.736,84.062 138.691,85.832 135.124,87.156 C131.557,88.475 127.556,89.311 123.115,89.663 C126.556,90.009 129.749,90.949 132.695,92.471 C135.635,93.988 138.169,95.901 140.29,98.192 C142.412,100.49 144.083,103.084 145.303,105.98 C146.528,108.871 147.139,111.867 147.139,114.961 C147.139,123.392 144.407,129.844 138.944,134.307 C133.481,138.775 125.182,141.007 114.058,141.007 L94.019,141.007 L94.019,139.512 L114.058,139.512 C124.687,139.512 132.579,137.363 137.746,133.071 C142.912,128.778 145.49,122.743 145.49,114.961 C145.49,112.163 144.94,109.311 143.846,106.393 C142.747,103.469 140.977,100.803 138.532,98.379 C136.086,95.961 132.92,93.977 129.029,92.433 C125.132,90.883 120.395,90.113 114.805,90.113 L88.611,90.113 L88.611,141.007 L86.814,141.007 L86.814,36.224 L88.611,36.224 L88.611,88.613 L118.251,88.613 C123.088,88.613 127.49,88.041 131.458,86.892 C135.426,85.744 138.795,84.084 141.565,81.913 C144.33,79.748 146.479,77.126 148.001,74.059 C149.524,70.987 150.282,67.557 150.282,63.765 C150.282,59.473 149.557,55.691 148.111,52.427 C146.666,49.156 144.555,46.436 141.785,44.27 C139.021,42.099 135.635,40.462 131.645,39.368 C127.655,38.269 123.137,37.719 118.097,37.719 L94.019,37.719 L94.019,36.224 L118.097,36.224 C123.439,36.224 128.216,36.823 132.431,38.016 C136.647,39.214 140.213,40.973 143.132,43.298 C146.056,45.617 148.271,48.497 149.799,51.937 C151.316,55.383 152.079,59.324 152.079,63.765 C152.079,67.508 151.403,70.899 150.057,73.944 Z"/>
    <!-- Diamond frame and corner elements -->
    <path d="M34.595,121.096 L33.522,122.121 L0.0145,88.613 L32.477,56.151 L33.556,57.17 L2.1126,88.613 L34.595,121.096 Z M44.208,132.807 L45.274,131.775 L88.611,175.111 L115.993,147.729 C116.728,147.716 117.45,147.689 118.165,147.655 L88.611,177.209 L44.208,132.807 Z M153.744,112.076 C153.683,111.455 153.603,110.835 153.501,110.221 L175.109,88.613 L157.96,71.465 C158.095,70.891 158.217,70.311 158.318,69.724 L177.207,88.613 L153.744,112.076 Z M115.973,29.477 L88.611,2.115 L44.228,46.497 L43.149,45.479 L88.085,0.543 L88.611,0.017 L118.071,29.477 L115.973,29.477 Z"/>
  </g>
</svg>
